<svg xmlns="http://www.w3.org/2000/svg" version="1.1" xmlns:xlink="http://www.w3.org/1999/xlink" width="512" height="512" x="0" y="0" viewBox="0 0 64 64" style="enable-background:new 0 0 512 512" xml:space="preserve" class=""><g><path fill="#50d9d7" d="M52 8v48a8 8 0 0 1-5.75 7.68c-1.52.45-.39.32-26.25.32a8 8 0 0 1-8-8V8a8 8 0 0 1 8-8h24a8 8 0 0 1 8 8z" opacity="1" data-original="#50d9d7"></path><path fill="#ffffff" d="M49 9v45a6 6 0 0 1-6 6H21a6 6 0 0 1-6-6V9a6 6 0 0 1 6-6h3.29a1 1 0 0 1 .94.68l.31.95A2 2 0 0 0 27.44 6h9.12a2 2 0 0 0 1.9-1.37l.31-.94a1 1 0 0 1 .95-.69H43a6 6 0 0 1 6 6z" opacity="1" data-original="#ffffff"></path><path fill="#ffac00" d="M38 19a1 1 0 0 1-1-1v-2a5 5 0 0 0-10 0v2a1 1 0 0 1-2 0v-2a7 7 0 0 1 14 0v2a1 1 0 0 1-1 1z" opacity="1" data-original="#ffac00"></path><rect width="19.64" height="18" x="22.18" y="17" fill="#00bebd" rx="2" opacity="1" data-original="#00bebd" class=""></rect><circle cx="38" cy="21" r="1" fill="#f3f3f3" opacity="1" data-original="#f3f3f3"></circle><circle cx="38" cy="25" r="1" fill="#f3f3f3" opacity="1" data-original="#f3f3f3"></circle><path fill="#50d9d7" d="M35 25a3 3 0 1 0-4 2.82V30a1 1 0 0 0 2 0v-2.18A3 3 0 0 0 35 25z" opacity="1" data-original="#50d9d7"></path><path fill="#00bebd" d="M49 37h3v16h-3zM12 37h3v16h-3z" opacity="1" data-original="#00bebd" class=""></path><path fill="#f3f3f3" d="M15 37h34v16H15z" opacity="1" data-original="#f3f3f3"></path><rect width="52" height="12" x="6" y="39" fill="#ffac00" rx="2" opacity="1" data-original="#ffac00"></rect><g fill="#f3f3f3"><path d="M14 49a1 1 0 0 1-1-1v-6a1 1 0 0 1 2 0v6a1 1 0 0 1-1 1z" fill="#f3f3f3" opacity="1" data-original="#f3f3f3"></path><path d="M16.6 47.5c-.38 0-.1.1-5.7-3.13a1 1 0 0 1 1-1.74l5.2 3a1 1 0 0 1-.5 1.87z" fill="#f3f3f3" opacity="1" data-original="#f3f3f3"></path><path d="M11.4 47.5a1 1 0 0 1-.5-1.87l5.2-3a1 1 0 0 1 1 1.74c-5.61 3.23-5.32 3.13-5.7 3.13zM26 49a1 1 0 0 1-1-1v-6a1 1 0 0 1 2 0v6a1 1 0 0 1-1 1z" fill="#f3f3f3" opacity="1" data-original="#f3f3f3"></path><path d="M28.6 47.5c-.38 0-.1.1-5.7-3.13a1 1 0 0 1 1-1.74l5.2 3a1 1 0 0 1-.5 1.87z" fill="#f3f3f3" opacity="1" data-original="#f3f3f3"></path><path d="M23.4 47.5a1 1 0 0 1-.5-1.87l5.2-3a1 1 0 0 1 1 1.74c-5.61 3.23-5.32 3.13-5.7 3.13zM38 49a1 1 0 0 1-1-1v-6a1 1 0 0 1 2 0v6a1 1 0 0 1-1 1z" fill="#f3f3f3" opacity="1" data-original="#f3f3f3"></path><path d="M40.6 47.5c-.38 0-.1.1-5.7-3.13a1 1 0 0 1 1-1.74l5.2 3a1 1 0 0 1-.5 1.87z" fill="#f3f3f3" opacity="1" data-original="#f3f3f3"></path><path d="M35.4 47.5a1 1 0 0 1-.5-1.87l5.2-3a1 1 0 0 1 1 1.74c-5.61 3.23-5.32 3.13-5.7 3.13zM50 49a1 1 0 0 1-1-1v-6a1 1 0 0 1 2 0v6a1 1 0 0 1-1 1z" fill="#f3f3f3" opacity="1" data-original="#f3f3f3"></path><path d="M52.6 47.5c-.38 0-.1.1-5.7-3.13a1 1 0 0 1 1-1.74l5.2 3a1 1 0 0 1-.5 1.87z" fill="#f3f3f3" opacity="1" data-original="#f3f3f3"></path><path d="M47.4 47.5a1 1 0 0 1-.5-1.87l5.2-3a1 1 0 0 1 1 1.74c-5.61 3.23-5.32 3.13-5.7 3.13z" fill="#f3f3f3" opacity="1" data-original="#f3f3f3"></path></g><path fill="#d9d9d9" d="M42 58H22a1 1 0 0 1 0-2h20a1 1 0 0 1 0 2z" opacity="1" data-original="#d9d9d9"></path></g></svg>